<svg width="100%" viewBox="0 0 680 520" role="img" xmlns="http://www.w3.org/2000/svg">
  <title>Franz Kafka pixel art mascot</title>
  <desc>A pixelated portrait of Franz Kafka in dark literary style for a GitHub README</desc>

  <style>
    .px { shape-rendering: crispEdges; }
    text.label { font-family: 'Courier New', monospace; font-size: 13px; fill: #c9a96e; letter-spacing: 2px; }
    text.sub { font-family: 'Courier New', monospace; font-size: 10px; fill: #6a6a8a; letter-spacing: 1px; }
  </style>

  <rect width="680" height="520" fill="#0d0d14" class="px"/>

  <g opacity="0.04">
    <line x1="0" y1="0" x2="680" y2="0" stroke="#8888ff" stroke-width="1"/>
    <line x1="0" y1="20" x2="680" y2="20" stroke="#8888ff" stroke-width="1"/>
    <line x1="0" y1="40" x2="680" y2="40" stroke="#8888ff" stroke-width="1"/>
    <line x1="0" y1="60" x2="680" y2="60" stroke="#8888ff" stroke-width="1"/>
    <line x1="0" y1="80" x2="680" y2="80" stroke="#8888ff" stroke-width="1"/>
    <line x1="0" y1="100" x2="680" y2="100" stroke="#8888ff" stroke-width="1"/>
    <line x1="0" y1="120" x2="680" y2="120" stroke="#8888ff" stroke-width="1"/>
    <line x1="0" y1="140" x2="680" y2="140" stroke="#8888ff" stroke-width="1"/>
    <line x1="0" y1="160" x2="680" y2="160" stroke="#8888ff" stroke-width="1"/>
    <line x1="0" y1="180" x2="680" y2="180" stroke="#8888ff" stroke-width="1"/>
    <line x1="0" y1="200" x2="680" y2="200" stroke="#8888ff" stroke-width="1"/>
    <line x1="0" y1="220" x2="680" y2="220" stroke="#8888ff" stroke-width="1"/>
    <line x1="0" y1="240" x2="680" y2="240" stroke="#8888ff" stroke-width="1"/>
    <line x1="0" y1="260" x2="680" y2="260" stroke="#8888ff" stroke-width="1"/>
    <line x1="0" y1="280" x2="680" y2="280" stroke="#8888ff" stroke-width="1"/>
    <line x1="0" y1="300" x2="680" y2="300" stroke="#8888ff" stroke-width="1"/>
    <line x1="0" y1="320" x2="680" y2="320" stroke="#8888ff" stroke-width="1"/>
    <line x1="0" y1="340" x2="680" y2="340" stroke="#8888ff" stroke-width="1"/>
    <line x1="0" y1="360" x2="680" y2="360" stroke="#8888ff" stroke-width="1"/>
    <line x1="0" y1="380" x2="680" y2="380" stroke="#8888ff" stroke-width="1"/>
    <line x1="0" y1="400" x2="680" y2="400" stroke="#8888ff" stroke-width="1"/>
    <line x1="0" y1="420" x2="680" y2="420" stroke="#8888ff" stroke-width="1"/>
    <line x1="0" y1="440" x2="680" y2="440" stroke="#8888ff" stroke-width="1"/>
    <line x1="0" y1="460" x2="680" y2="460" stroke="#8888ff" stroke-width="1"/>
    <line x1="0" y1="480" x2="680" y2="480" stroke="#8888ff" stroke-width="1"/>
    <line x1="0" y1="500" x2="680" y2="500" stroke="#8888ff" stroke-width="1"/>
  </g>

  <g fill="#1a1a2e" class="px">
    <rect x="290" y="60" width="10" height="10"/>
    <rect x="300" y="60" width="10" height="10"/>
    <rect x="310" y="60" width="10" height="10"/>
    <rect x="320" y="60" width="10" height="10"/>
    <rect x="330" y="60" width="10" height="10"/>
    <rect x="340" y="60" width="10" height="10"/>
    <rect x="350" y="60" width="10" height="10"/>
    <rect x="360" y="60" width="10" height="10"/>
    <rect x="370" y="60" width="10" height="10"/>
    <rect x="380" y="60" width="10" height="10"/>
    <rect x="280" y="70" width="10" height="10"/>
    <rect x="290" y="70" width="10" height="10"/>
    <rect x="300" y="70" width="10" height="10"/>
    <rect x="310" y="70" width="10" height="10"/>
    <rect x="320" y="70" width="10" height="10"/>
    <rect x="330" y="70" width="10" height="10"/>
    <rect x="340" y="70" width="10" height="10"/>
    <rect x="350" y="70" width="10" height="10"/>
    <rect x="360" y="70" width="10" height="10"/>
    <rect x="370" y="70" width="10" height="10"/>
    <rect x="380" y="70" width="10" height="10"/>
    <rect x="390" y="70" width="10" height="10"/>
    <rect x="270" y="80" width="10" height="10"/>
    <rect x="280" y="80" width="10" height="10"/>
    <rect x="290" y="80" width="10" height="10"/>
    <rect x="370" y="80" width="10" height="10"/>
    <rect x="380" y="80" width="10" height="10"/>
    <rect x="390" y="80" width="10" height="10"/>
    <rect x="400" y="80" width="10" height="10"/>
  </g>

  <g fill="#c8a882" class="px">
    <rect x="290" y="80" width="10" height="10"/>
    <rect x="300" y="80" width="10" height="10"/>
    <rect x="310" y="80" width="10" height="10"/>
    <rect x="320" y="80" width="10" height="10"/>
    <rect x="330" y="80" width="10" height="10"/>
    <rect x="340" y="80" width="10" height="10"/>
    <rect x="350" y="80" width="10" height="10"/>
    <rect x="360" y="80" width="10" height="10"/>
    <rect x="270" y="90" width="10" height="10"/>
    <rect x="280" y="90" width="10" height="10"/>
    <rect x="290" y="90" width="10" height="10"/>
    <rect x="300" y="90" width="10" height="10"/>
    <rect x="310" y="90" width="10" height="10"/>
    <rect x="320" y="90" width="10" height="10"/>
    <rect x="330" y="90" width="10" height="10"/>
    <rect x="340" y="90" width="10" height="10"/>
    <rect x="350" y="90" width="10" height="10"/>
    <rect x="360" y="90" width="10" height="10"/>
    <rect x="370" y="90" width="10" height="10"/>
    <rect x="380" y="90" width="10" height="10"/>
    <rect x="390" y="90" width="10" height="10"/>
    <rect x="400" y="90" width="10" height="10"/>
    <rect x="270" y="100" width="10" height="10"/>
    <rect x="280" y="100" width="10" height="10"/>
    <rect x="290" y="100" width="10" height="10"/>
    <rect x="300" y="100" width="10" height="10"/>
    <rect x="310" y="100" width="10" height="10"/>
    <rect x="320" y="100" width="10" height="10"/>
    <rect x="330" y="100" width="10" height="10"/>
    <rect x="340" y="100" width="10" height="10"/>
    <rect x="350" y="100" width="10" height="10"/>
    <rect x="360" y="100" width="10" height="10"/>
    <rect x="370" y="100" width="10" height="10"/>
    <rect x="380" y="100" width="10" height="10"/>
    <rect x="390" y="100" width="10" height="10"/>
    <rect x="400" y="100" width="10" height="10"/>
    <rect x="270" y="110" width="10" height="10"/>
    <rect x="280" y="110" width="10" height="10"/>
    <rect x="290" y="110" width="10" height="10"/>
    <rect x="300" y="110" width="10" height="10"/>
    <rect x="310" y="110" width="10" height="10"/>
    <rect x="320" y="110" width="10" height="10"/>
    <rect x="330" y="110" width="10" height="10"/>
    <rect x="340" y="110" width="10" height="10"/>
    <rect x="350" y="110" width="10" height="10"/>
    <rect x="360" y="110" width="10" height="10"/>
    <rect x="370" y="110" width="10" height="10"/>
    <rect x="380" y="110" width="10" height="10"/>
    <rect x="390" y="110" width="10" height="10"/>
    <rect x="400" y="110" width="10" height="10"/>
    <rect x="280" y="120" width="10" height="10"/>
    <rect x="290" y="120" width="10" height="10"/>
    <rect x="300" y="120" width="10" height="10"/>
    <rect x="310" y="120" width="10" height="10"/>
    <rect x="320" y="120" width="10" height="10"/>
    <rect x="330" y="120" width="10" height="10"/>
    <rect x="340" y="120" width="10" height="10"/>
    <rect x="350" y="120" width="10" height="10"/>
    <rect x="360" y="120" width="10" height="10"/>
    <rect x="370" y="120" width="10" height="10"/>
    <rect x="380" y="120" width="10" height="10"/>
    <rect x="390" y="120" width="10" height="10"/>
    <rect x="280" y="130" width="10" height="10"/>
    <rect x="290" y="130" width="10" height="10"/>
    <rect x="300" y="130" width="10" height="10"/>
    <rect x="310" y="130" width="10" height="10"/>
    <rect x="320" y="130" width="10" height="10"/>
    <rect x="330" y="130" width="10" height="10"/>
    <rect x="340" y="130" width="10" height="10"/>
    <rect x="350" y="130" width="10" height="10"/>
    <rect x="360" y="130" width="10" height="10"/>
    <rect x="370" y="130" width="10" height="10"/>
    <rect x="380" y="130" width="10" height="10"/>
    <rect x="390" y="130" width="10" height="10"/>
    <rect x="290" y="140" width="10" height="10"/>
    <rect x="300" y="140" width="10" height="10"/>
    <rect x="310" y="140" width="10" height="10"/>
    <rect x="320" y="140" width="10" height="10"/>
    <rect x="330" y="140" width="10" height="10"/>
    <rect x="340" y="140" width="10" height="10"/>
    <rect x="350" y="140" width="10" height="10"/>
    <rect x="360" y="140" width="10" height="10"/>
    <rect x="370" y="140" width="10" height="10"/>
    <rect x="380" y="140" width="10" height="10"/>
    <rect x="300" y="150" width="10" height="10"/>
    <rect x="310" y="150" width="10" height="10"/>
    <rect x="320" y="150" width="10" height="10"/>
    <rect x="330" y="150" width="10" height="10"/>
    <rect x="340" y="150" width="10" height="10"/>
    <rect x="350" y="150" width="10" height="10"/>
    <rect x="360" y="150" width="10" height="10"/>
    <rect x="370" y="150" width="10" height="10"/>
    <rect x="310" y="160" width="10" height="10"/>
    <rect x="320" y="160" width="10" height="10"/>
    <rect x="330" y="160" width="10" height="10"/>
    <rect x="340" y="160" width="10" height="10"/>
    <rect x="350" y="160" width="10" height="10"/>
    <rect x="360" y="160" width="10" height="10"/>
    <rect x="320" y="170" width="10" height="10"/>
    <rect x="330" y="170" width="10" height="10"/>
    <rect x="340" y="170" width="10" height="10"/>
    <rect x="350" y="170" width="10" height="10"/>
  </g>

  <g fill="#1a1030" class="px">
    <rect x="300" y="110" width="10" height="10"/>
    <rect x="310" y="110" width="10" height="10"/>
    <rect x="360" y="110" width="10" height="10"/>
    <rect x="370" y="110" width="10" height="10"/>
  </g>
  <g fill="#dde0f0" class="px">
    <rect x="300" y="110" width="5" height="10"/>
    <rect x="365" y="110" width="5" height="10"/>
  </g>
  <g fill="#0a0a18" class="px">
    <rect x="305" y="112" width="6" height="7"/>
    <rect x="366" y="112" width="6" height="7"/>
  </g>
  <g fill="#1a1a2e" class="px">
    <rect x="298" y="103" width="20" height="4"/>
    <rect x="358" y="103" width="20" height="4"/>
  </g>

  <g fill="#b89060" class="px">
    <rect x="335" y="120" width="8" height="5"/>
    <rect x="330" y="130" width="20" height="8"/>
  </g>

  <g fill="#8a6050" class="px">
    <rect x="320" y="152" width="30" height="5"/>
  </g>
  <g fill="#a07060" class="px">
    <rect x="323" y="157" width="24" height="4"/>
  </g>

  <g fill="#b89060" class="px">
    <rect x="260" y="100" width="10" height="20"/>
    <rect x="400" y="100" width="10" height="20"/>
  </g>

  <g fill="#c8a882" class="px">
    <rect x="320" y="180" width="30" height="20"/>
  </g>

  <g fill="#1c1c2e" class="px">
    <rect x="240" y="200" width="70" height="10"/>
    <rect x="360" y="200" width="70" height="10"/>
    <rect x="240" y="210" width="60" height="10"/>
    <rect x="240" y="220" width="55" height="10"/>
    <rect x="240" y="230" width="55" height="10"/>
    <rect x="240" y="240" width="55" height="10"/>
    <rect x="240" y="250" width="55" height="10"/>
    <rect x="240" y="260" width="55" height="10"/>
    <rect x="240" y="270" width="55" height="10"/>
    <rect x="240" y="280" width="55" height="10"/>
    <rect x="240" y="290" width="55" height="10"/>
    <rect x="240" y="300" width="55" height="10"/>
    <rect x="370" y="210" width="60" height="10"/>
    <rect x="375" y="220" width="55" height="10"/>
    <rect x="375" y="230" width="55" height="10"/>
    <rect x="375" y="240" width="55" height="10"/>
    <rect x="375" y="250" width="55" height="10"/>
    <rect x="375" y="260" width="55" height="10"/>
    <rect x="375" y="270" width="55" height="10"/>
    <rect x="375" y="280" width="55" height="10"/>
    <rect x="375" y="290" width="55" height="10"/>
    <rect x="375" y="300" width="55" height="10"/>
    <rect x="300" y="200" width="15" height="10"/>
    <rect x="355" y="200" width="15" height="10"/>
    <rect x="305" y="210" width="10" height="10"/>
    <rect x="355" y="210" width="10" height="10"/>
    <rect x="308" y="220" width="8" height="10"/>
    <rect x="354" y="220" width="8" height="10"/>
  </g>

  <g fill="#e8e8f0" class="px">
    <rect x="315" y="200" width="40" height="10"/>
    <rect x="318" y="210" width="34" height="10"/>
    <rect x="320" y="220" width="30" height="10"/>
    <rect x="320" y="230" width="30" height="10"/>
    <rect x="320" y="240" width="30" height="10"/>
    <rect x="320" y="250" width="30" height="10"/>
    <rect x="320" y="260" width="30" height="10"/>
    <rect x="320" y="270" width="30" height="10"/>
    <rect x="320" y="280" width="30" height="10"/>
    <rect x="320" y="290" width="30" height="10"/>
    <rect x="320" y="300" width="30" height="10"/>
  </g>

  <g fill="#6b1a1a" class="px">
    <rect x="332" y="210" width="6" height="100"/>
    <rect x="330" y="215" width="10" height="5"/>
    <rect x="329" y="240" width="12" height="10"/>
  </g>

  <g fill="#d8d8e8" class="px">
    <rect x="310" y="190" width="15" height="12"/>
    <rect x="345" y="190" width="15" height="12"/>
  </g>

  <g fill="none" stroke="#2a1a3e" stroke-width="1" class="px">
    <rect x="30" y="30" width="40" height="40" rx="0"/>
    <rect x="36" y="36" width="28" height="28" rx="0"/>
    <rect x="610" y="30" width="40" height="40" rx="0"/>
    <rect x="616" y="36" width="28" height="28" rx="0"/>
    <rect x="30" y="450" width="40" height="40" rx="0"/>
    <rect x="36" y="456" width="28" height="28" rx="0"/>
    <rect x="610" y="450" width="40" height="40" rx="0"/>
    <rect x="616" y="456" width="28" height="28" rx="0"/>
  </g>

  <text x="340" y="390" class="label" text-anchor="middle">FRANZ KAFKA</text>
  <text x="340" y="408" class="sub" text-anchor="middle">1883 – 1924  ·  Prague</text>

  <rect x="140" y="425" width="400" height="1" fill="#2a2a4a"/>
  <text x="340" y="445" class="sub" text-anchor="middle" fill="#5a5a7a">"One must not cheat anyone, not even the world of its triumph."</text>

  <g fill="#3a2a5e" class="px">
    <rect x="325" y="460" width="6" height="6"/>
    <rect x="333" y="460" width="6" height="6"/>
    <rect x="341" y="460" width="6" height="6"/>
    <rect x="349" y="460" width="6" height="6"/>
  </g>
</svg>
